# Blender v2.77 (sub 0) OBJ File: ''
# www.blender.org
o Cube
v -1.000000 1.000000 -1.000000
v -1.000000 -1.000000 1.000000
v -1.000000 1.000000 1.000000
v 1.000000 1.000000 -1.000000
v -1.000000 -1.000000 -1.000000
v 1.000000 1.000000 1.000000
v 1.000000 -1.000000 -1.000000
v 1.000000 -1.000000 1.000000
vt 1.7500 -0.7500
vt -0.7500 1.7500
vt -0.7500 -0.7500
vt 1.7500 -0.7500
vt -0.7500 1.7500
vt -0.7500 -0.7500
vt 1.7500 1.7500
vt 1.7500 1.7500
vt 1.7500 -0.7500
vt -0.7500 1.7500
vt -0.7500 -0.7500
vt 1.7500 -0.7500
vt -0.7500 1.7500
vt -0.7500 -0.7500
vt 1.7500 1.7500
vt 1.7500 1.7500
vt 1.7500 -0.7500
vt -0.7500 -0.7500
vt -0.7500 1.7500
vt 1.7500 1.7500
vn -1.0000 -0.0000 0.0000
vn 1.0000 -0.0000 0.0000
vn 0.0000 0.0000 -1.0000
vn 0.0000 -0.0000 1.0000
vn 0.0000 -1.0000 -0.0000
vn 0.0000 1.0000 0.0000
s 1
f 1/1/1 2/2/1 3/3/1
f 6/4/2 7/5/2 4/6/2
f 1/1/1 5/7/1 2/2/1
f 6/4/2 8/8/2 7/5/2
s 2
f 4/9/3 5/10/3 1/11/3
f 3/12/4 8/13/4 6/14/4
f 4/9/3 7/15/3 5/10/3
f 3/12/4 2/16/4 8/13/4
s 4
f 5/17/5 8/13/5 2/18/5
f 4/9/6 3/19/6 6/14/6
f 5/17/5 7/15/5 8/13/5
f 4/9/6 1/20/6 3/19/6
