# Blender v2.77 (sub 0) OBJ File: ''
# www.blender.org
mtllib sphere.mtl
o Sphere
v -0.707107 0.707107 0.000000
v -0.800103 0.382683 -0.461940
v -0.923880 0.382683 0.000000
v -0.382683 0.923880 0.000000
v 0.000000 1.000000 0.000000
v -0.331414 0.923880 -0.191342
v 0.000000 -1.000000 -0.000000
v -0.382683 -0.923880 -0.000000
v -0.331414 -0.923880 -0.191342
v -0.923880 -0.382684 -0.000000
v -0.612372 -0.707107 -0.353553
v -0.707107 -0.707107 -0.000000
v -1.000000 0.000000 0.000000
v -0.866025 0.000000 -0.500000
v -0.612372 0.707107 -0.353553
v -0.800103 -0.382684 -0.461940
v -0.353553 -0.707107 -0.612372
v -0.500000 0.000000 -0.866025
v -0.191342 0.923880 -0.331413
v -0.353553 0.707107 -0.612372
v -0.191342 -0.923880 -0.331413
v -0.461940 -0.382684 -0.800103
v -0.461940 0.382683 -0.800103
v 0.000000 -0.923880 -0.382683
v 0.000000 0.000000 -1.000000
v 0.000000 -0.382684 -0.923879
v 0.000000 0.707107 -0.707107
v 0.000000 0.382683 -0.923879
v 0.000000 0.923880 -0.382683
v 0.000000 -0.707107 -0.707107
v 0.500000 0.000000 -0.866025
v 0.461940 -0.382684 -0.800103
v 0.461940 0.382683 -0.800103
v 0.191341 0.923880 -0.331413
v 0.191342 -0.923880 -0.331413
v 0.353553 -0.707107 -0.612372
v 0.353553 0.707107 -0.612372
v 0.331413 -0.923880 -0.191342
v 0.612372 -0.707107 -0.353553
v 0.866025 0.000000 -0.500000
v 0.612372 0.707107 -0.353553
v 0.800103 -0.382684 -0.461940
v 0.800103 0.382683 -0.461940
v 0.331413 0.923880 -0.191342
v 1.000000 0.000000 0.000000
v 0.382683 0.923880 0.000000
v 0.707106 0.707107 0.000000
v 0.382683 -0.923880 -0.000000
v 0.923879 -0.382684 -0.000000
v 0.923879 0.382683 0.000000
v 0.707106 -0.707107 -0.000000
v 0.331413 -0.923880 0.191342
v 0.800103 -0.382684 0.461940
v 0.800103 0.382683 0.461940
v 0.331413 0.923880 0.191342
v 0.612372 -0.707107 0.353553
v 0.866025 -0.000000 0.500000
v 0.612372 0.707107 0.353553
v 0.353553 0.707107 0.612372
v 0.461940 0.382683 0.800103
v 0.191341 0.923880 0.331413
v 0.191341 -0.923880 0.331413
v 0.353553 -0.707107 0.612372
v 0.500000 -0.000000 0.866025
v 0.461940 -0.382684 0.800103
v 0.000000 -0.923880 0.382683
v 0.000000 -0.707107 0.707107
v 0.000000 -0.000000 1.000000
v 0.000000 0.923880 0.382683
v 0.000000 0.707107 0.707107
v 0.000000 -0.382684 0.923879
v 0.000000 0.382683 0.923879
v -0.353554 0.707107 0.612372
v -0.191342 -0.923880 0.331413
v -0.461940 -0.382684 0.800103
v -0.461940 0.382683 0.800103
v -0.191342 0.923880 0.331413
v -0.353554 -0.707107 0.612372
v -0.500000 -0.000000 0.866025
v -0.612373 -0.707107 0.353553
v -0.331414 -0.923880 0.191342
v -0.800103 -0.382684 0.461940
v -0.800103 0.382683 0.461940
v -0.331414 0.923880 0.191342
v -0.866025 -0.000000 0.500000
v -0.612373 0.707107 0.353553
vt 0.2500 0.7500
vt 0.1667 0.6250
vt 0.2500 0.6250
vt 0.2500 0.8750
vt 0.6401 1.0000
vt 0.1667 0.8750
vt 0.1401 0.0000
vt 0.2500 0.1250
vt 0.1667 0.1250
vt 0.2500 0.3750
vt 0.1667 0.2500
vt 0.2500 0.2500
vt 0.2500 0.5000
vt 0.1667 0.5000
vt 0.1667 0.7500
vt 0.1667 0.3750
vt 0.0833 0.2500
vt 0.0833 0.5000
vt 0.0833 0.8750
vt 0.0833 0.7500
vt 0.0833 0.1250
vt 0.0833 0.3750
vt 0.0833 0.6250
vt 1.0833 0.8750
vt 0.0000 0.1250
vt 0.0000 0.5000
vt 0.0000 0.3750
vt 0.0000 0.7500
vt 0.0000 0.6250
vt 1.0000 0.8750
vt 0.0000 0.2500
vt 1.0000 0.3750
vt 0.9167 0.5000
vt 0.9167 0.3750
vt 1.0000 0.7500
vt 0.9167 0.6250
vt 1.0000 0.6250
vt 0.9167 0.8750
vt 1.1401 0.0000
vt 1.0000 0.1250
vt 0.9167 0.1250
vt 0.9167 0.2500
vt 1.0000 0.2500
vt 1.0000 0.5000
vt 0.9167 0.7500
vt 0.8333 0.1250
vt 0.8333 0.2500
vt 0.8333 0.5000
vt 0.8333 0.7500
vt 0.8333 0.3750
vt 0.8333 0.6250
vt 0.8333 0.8750
vt 0.7500 0.5000
vt 0.7500 0.8750
vt 0.7500 0.7500
vt 0.7500 0.1250
vt 0.7500 0.3750
vt 0.7500 0.6250
vt 0.7500 0.2500
vt 0.6667 0.1250
vt 0.6667 0.3750
vt 0.6667 0.6250
vt 0.6667 0.8750
vt 0.6667 0.2500
vt 0.6667 0.5000
vt 0.6667 0.7500
vt 0.5833 0.7500
vt 0.5833 0.6250
vt 0.5833 0.8750
vt 0.5833 0.1250
vt 0.5833 0.2500
vt 0.5833 0.5000
vt 0.5833 0.3750
vt 0.5000 0.1250
vt 0.5000 0.2500
vt 0.5000 0.5000
vt 0.5000 0.8750
vt 0.5000 0.7500
vt 0.5000 0.3750
vt 0.5000 0.6250
vt 0.4167 0.7500
vt 0.4167 0.1250
vt 0.4167 0.3750
vt 0.4167 0.6250
vt 0.4167 0.8750
vt 0.4167 0.2500
vt 0.4167 0.5000
vt 0.3333 0.2500
vt 0.3333 0.1250
vt 0.3333 0.3750
vt 0.3333 0.6250
vt 0.3333 0.8750
vt 0.3333 0.5000
vt 0.3333 0.7500
vt 0.0000 0.8750
vn -0.7226 0.6913 -0.0000
vn -0.8040 0.3718 -0.4642
vn -0.9283 0.3717 -0.0000
vn -0.4097 0.9122 -0.0000
vn 0.0000 1.0000 0.0000
vn -0.3548 0.9122 -0.2049
vn 0.0000 -1.0000 -0.0000
vn -0.4097 -0.9122 -0.0000
vn -0.3548 -0.9122 -0.2049
vn -0.9283 -0.3718 -0.0000
vn -0.6258 -0.6913 -0.3613
vn -0.7226 -0.6913 -0.0000
vn -1.0000 0.0000 -0.0000
vn -0.8660 0.0000 -0.5000
vn -0.6258 0.6913 -0.3613
vn -0.8040 -0.3718 -0.4642
vn -0.3613 -0.6913 -0.6258
vn -0.5000 0.0000 -0.8660
vn -0.2049 0.9122 -0.3548
vn -0.3613 0.6913 -0.6258
vn -0.2048 -0.9122 -0.3548
vn -0.4642 -0.3718 -0.8040
vn -0.4642 0.3718 -0.8040
vn -0.0000 -0.9122 -0.4097
vn 0.0000 0.0000 -1.0000
vn 0.0000 -0.3718 -0.9283
vn 0.0000 0.6913 -0.7226
vn 0.0000 0.3718 -0.9283
vn 0.0000 0.9122 -0.4097
vn 0.0000 -0.6913 -0.7226
vn 0.5000 0.0000 -0.8660
vn 0.4642 -0.3718 -0.8040
vn 0.4642 0.3718 -0.8040
vn 0.2048 0.9122 -0.3548
vn 0.2049 -0.9122 -0.3548
vn 0.3613 -0.6913 -0.6258
vn 0.3613 0.6913 -0.6258
vn 0.3548 -0.9122 -0.2049
vn 0.6258 -0.6913 -0.3613
vn 0.8660 0.0000 -0.5000
vn 0.6258 0.6913 -0.3613
vn 0.8040 -0.3718 -0.4642
vn 0.8040 0.3718 -0.4642
vn 0.3548 0.9122 -0.2049
vn 1.0000 0.0000 -0.0000
vn 0.4097 0.9122 0.0000
vn 0.7226 0.6913 0.0000
vn 0.4097 -0.9122 -0.0000
vn 0.9283 -0.3718 -0.0000
vn 0.9283 0.3718 0.0000
vn 0.7226 -0.6913 0.0000
vn 0.3548 -0.9122 0.2049
vn 0.8040 -0.3718 0.4642
vn 0.8040 0.3718 0.4642
vn 0.3548 0.9122 0.2049
vn 0.6258 -0.6913 0.3613
vn 0.8660 0.0000 0.5000
vn 0.6258 0.6913 0.3613
vn 0.3613 0.6913 0.6258
vn 0.4642 0.3718 0.8040
vn 0.2048 0.9122 0.3548
vn 0.2048 -0.9122 0.3548
vn 0.3613 -0.6913 0.6258
vn 0.5000 -0.0000 0.8660
vn 0.4642 -0.3718 0.8040
vn 0.0000 -0.9122 0.4097
vn 0.0000 -0.6913 0.7226
vn 0.0000 -0.0000 1.0000
vn 0.0000 0.9122 0.4097
vn 0.0000 0.6913 0.7226
vn 0.0000 -0.3718 0.9283
vn 0.0000 0.3718 0.9283
vn -0.3613 0.6913 0.6258
vn -0.2048 -0.9122 0.3548
vn -0.4642 -0.3718 0.8040
vn -0.4642 0.3718 0.8040
vn -0.2048 0.9122 0.3548
vn -0.3613 -0.6913 0.6258
vn -0.5000 0.0000 0.8660
vn -0.6258 -0.6913 0.3613
vn -0.3548 -0.9122 0.2048
vn -0.8040 -0.3718 0.4642
vn -0.8040 0.3717 0.4642
vn -0.3548 0.9122 0.2049
vn -0.8660 0.0000 0.5000
vn -0.6258 0.6913 0.3613
usemtl None
s 1
f 1/1/1 2/2/2 3/3/3
f 4/4/4 5/5/5 6/6/6
f 7/7/7 8/8/8 9/9/9
f 10/10/10 11/11/11 12/12/12
f 13/13/13 2/2/2 14/14/14
f 4/4/4 15/15/15 1/1/1
f 8/8/8 11/11/11 9/9/9
f 13/13/13 16/16/16 10/10/10
f 16/16/16 17/17/17 11/11/11
f 2/2/2 18/18/18 14/14/14
f 15/15/15 19/19/19 20/20/20
f 11/11/11 21/21/21 9/9/9
f 16/16/16 18/18/18 22/22/22
f 2/2/2 20/20/20 23/23/23
f 6/6/6 5/5/5 19/24/19
f 7/7/7 9/9/9 21/21/21
f 17/17/17 24/25/24 21/21/21
f 22/22/22 25/26/25 26/27/26
f 23/23/23 27/28/27 28/29/28
f 19/24/19 5/5/5 29/30/29
f 7/7/7 21/21/21 24/25/24
f 22/22/22 30/31/30 17/17/17
f 23/23/23 25/26/25 18/18/18
f 19/19/19 27/28/27 20/20/20
f 26/32/26 31/33/31 32/34/32
f 27/35/27 33/36/33 28/37/28
f 29/30/29 5/5/5 34/38/34
f 7/39/7 24/40/24 35/41/35
f 26/32/26 36/42/36 30/43/30
f 28/37/28 31/33/31 25/44/25
f 29/30/29 37/45/37 27/35/27
f 30/43/30 35/41/35 24/40/24
f 7/39/7 35/41/35 38/46/38
f 32/34/32 39/47/39 36/42/36
f 33/36/33 40/48/40 31/33/31
f 34/38/34 41/49/41 37/45/37
f 36/42/36 38/46/38 35/41/35
f 31/33/31 42/50/42 32/34/32
f 37/45/37 43/51/43 33/36/33
f 34/38/34 5/5/5 44/52/44
f 43/51/43 45/53/45 40/48/40
f 41/49/41 46/54/46 47/55/47
f 39/47/39 48/56/48 38/46/38
f 40/48/40 49/57/49 42/50/42
f 41/49/41 50/58/50 43/51/43
f 44/52/44 5/5/5 46/54/46
f 7/39/7 38/46/38 48/56/48
f 42/50/42 51/59/51 39/47/39
f 51/59/51 52/60/52 48/56/48
f 45/53/45 53/61/53 49/57/49
f 47/55/47 54/62/54 50/58/50
f 46/54/46 5/5/5 55/63/55
f 7/39/7 48/56/48 52/60/52
f 49/57/49 56/64/56 51/59/51
f 50/58/50 57/65/57 45/53/45
f 46/54/46 58/66/58 47/55/47
f 54/62/54 59/67/59 60/68/60
f 55/63/55 5/5/5 61/69/61
f 7/39/7 52/60/52 62/70/62
f 53/61/53 63/71/63 56/64/56
f 54/62/54 64/72/64 57/65/57
f 58/66/58 61/69/61 59/67/59
f 52/60/52 63/71/63 62/70/62
f 57/65/57 65/73/65 53/61/53
f 7/7/7 62/70/62 66/74/66
f 65/73/65 67/75/67 63/71/63
f 60/68/60 68/76/68 64/72/64
f 59/67/59 69/77/69 70/78/70
f 63/71/63 66/74/66 62/70/62
f 64/72/64 71/79/71 65/73/65
f 59/67/59 72/80/72 60/68/60
f 61/69/61 5/5/5 69/77/69
f 69/77/69 73/81/73 70/78/70
f 67/75/67 74/82/74 66/74/66
f 68/76/68 75/83/75 71/79/71
f 72/80/72 73/81/73 76/84/76
f 69/77/69 5/5/5 77/85/77
f 7/7/7 66/74/66 74/82/74
f 67/75/67 75/83/75 78/86/78
f 68/76/68 76/84/76 79/87/79
f 74/82/74 80/88/80 81/89/81
f 79/87/79 82/90/82 75/83/75
f 73/81/73 83/91/83 76/84/76
f 77/85/77 5/5/5 84/92/84
f 7/7/7 74/82/74 81/89/81
f 78/86/78 82/90/82 80/88/80
f 76/84/76 85/93/85 79/87/79
f 77/85/77 86/94/86 73/81/73
f 84/92/84 5/5/5 4/4/4
f 7/7/7 81/89/81 8/8/8
f 80/88/80 10/10/10 12/12/12
f 83/91/83 13/13/13 85/93/85
f 84/92/84 1/1/1 86/94/86
f 80/88/80 8/8/8 81/89/81
f 85/93/85 10/10/10 82/90/82
f 86/94/86 3/3/3 83/91/83
f 1/1/1 15/15/15 2/2/2
f 10/10/10 16/16/16 11/11/11
f 13/13/13 3/3/3 2/2/2
f 4/4/4 6/6/6 15/15/15
f 8/8/8 12/12/12 11/11/11
f 13/13/13 14/14/14 16/16/16
f 16/16/16 22/22/22 17/17/17
f 2/2/2 23/23/23 18/18/18
f 15/15/15 6/6/6 19/19/19
f 11/11/11 17/17/17 21/21/21
f 16/16/16 14/14/14 18/18/18
f 2/2/2 15/15/15 20/20/20
f 17/17/17 30/31/30 24/25/24
f 22/22/22 18/18/18 25/26/25
f 23/23/23 20/20/20 27/28/27
f 22/22/22 26/27/26 30/31/30
f 23/23/23 28/29/28 25/26/25
f 19/19/19 29/95/29 27/28/27
f 26/32/26 25/44/25 31/33/31
f 27/35/27 37/45/37 33/36/33
f 26/32/26 32/34/32 36/42/36
f 28/37/28 33/36/33 31/33/31
f 29/30/29 34/38/34 37/45/37
f 30/43/30 36/42/36 35/41/35
f 32/34/32 42/50/42 39/47/39
f 33/36/33 43/51/43 40/48/40
f 34/38/34 44/52/44 41/49/41
f 36/42/36 39/47/39 38/46/38
f 31/33/31 40/48/40 42/50/42
f 37/45/37 41/49/41 43/51/43
f 43/51/43 50/58/50 45/53/45
f 41/49/41 44/52/44 46/54/46
f 39/47/39 51/59/51 48/56/48
f 40/48/40 45/53/45 49/57/49
f 41/49/41 47/55/47 50/58/50
f 42/50/42 49/57/49 51/59/51
f 51/59/51 56/64/56 52/60/52
f 45/53/45 57/65/57 53/61/53
f 47/55/47 58/66/58 54/62/54
f 49/57/49 53/61/53 56/64/56
f 50/58/50 54/62/54 57/65/57
f 46/54/46 55/63/55 58/66/58
f 54/62/54 58/66/58 59/67/59
f 53/61/53 65/73/65 63/71/63
f 54/62/54 60/68/60 64/72/64
f 58/66/58 55/63/55 61/69/61
f 52/60/52 56/64/56 63/71/63
f 57/65/57 64/72/64 65/73/65
f 65/73/65 71/79/71 67/75/67
f 60/68/60 72/80/72 68/76/68
f 59/67/59 61/69/61 69/77/69
f 63/71/63 67/75/67 66/74/66
f 64/72/64 68/76/68 71/79/71
f 59/67/59 70/78/70 72/80/72
f 69/77/69 77/85/77 73/81/73
f 67/75/67 78/86/78 74/82/74
f 68/76/68 79/87/79 75/83/75
f 72/80/72 70/78/70 73/81/73
f 67/75/67 71/79/71 75/83/75
f 68/76/68 72/80/72 76/84/76
f 74/82/74 78/86/78 80/88/80
f 79/87/79 85/93/85 82/90/82
f 73/81/73 86/94/86 83/91/83
f 78/86/78 75/83/75 82/90/82
f 76/84/76 83/91/83 85/93/85
f 77/85/77 84/92/84 86/94/86
f 80/88/80 82/90/82 10/10/10
f 83/91/83 3/3/3 13/13/13
f 84/92/84 4/4/4 1/1/1
f 80/88/80 12/12/12 8/8/8
f 85/93/85 13/13/13 10/10/10
f 86/94/86 1/1/1 3/3/3
